G04 Layer: BottomLayer*
G04 EasyEDA v6.5.23, 2023-05-31 09:28:12*
G04 09e610007bd44921b29e07513bdf5b12,4db1f7442a1f4f30bb2da465e00f2567,10*
G04 Gerber Generator version 0.2*
G04 Scale: 100 percent, Rotated: No, Reflected: No *
G04 Dimensions in millimeters *
G04 leading zeros omitted , absolute positions ,4 integer and 5 decimal *
%FSLAX45Y45*%
%MOMM*%

%ADD10C,0.2032*%
%ADD11C,0.3500*%
%ADD12O,1.7999964X4.9999899999999995*%
%ADD13O,1.5500096X4.9999899999999995*%
%ADD14C,1.8001*%
%ADD15C,2.0000*%
%ADD16R,1.5748X1.5748*%
%ADD17C,1.5748*%
%ADD18C,0.0195*%

%LPD*%
G36*
X736092Y10122408D02*
G01*
X732180Y10123170D01*
X728929Y10125405D01*
X726694Y10128656D01*
X725932Y10132568D01*
X725932Y13563854D01*
X726694Y13567765D01*
X728929Y13571016D01*
X732180Y13573251D01*
X736092Y13574013D01*
X5653532Y13574013D01*
X5657443Y13573251D01*
X5660694Y13571016D01*
X5662930Y13567765D01*
X5663692Y13563854D01*
X5663692Y10132568D01*
X5662930Y10128656D01*
X5660694Y10125405D01*
X5657443Y10123170D01*
X5653532Y10122408D01*
G37*

%LPC*%
G36*
X957021Y10174681D02*
G01*
X975106Y10176052D01*
X992886Y10179304D01*
X1010310Y10184384D01*
X1027074Y10191191D01*
X1043025Y10199725D01*
X1058062Y10209834D01*
X1071981Y10221417D01*
X1084630Y10234371D01*
X1095857Y10248595D01*
X1105560Y10263886D01*
X1113688Y10280040D01*
X1120038Y10297007D01*
X1124661Y10314533D01*
X1127455Y10332415D01*
X1128369Y10350500D01*
X1127455Y10368584D01*
X1124661Y10386466D01*
X1120038Y10403992D01*
X1113688Y10420959D01*
X1105560Y10437114D01*
X1095857Y10452404D01*
X1084630Y10466628D01*
X1071981Y10479582D01*
X1058062Y10491165D01*
X1043025Y10501274D01*
X1027074Y10509808D01*
X1010310Y10516616D01*
X992886Y10521696D01*
X975106Y10524947D01*
X957021Y10526318D01*
X938936Y10525861D01*
X920953Y10523524D01*
X903325Y10519410D01*
X886256Y10513415D01*
X869848Y10505744D01*
X854303Y10496448D01*
X839825Y10485577D01*
X826516Y10473283D01*
X814578Y10459669D01*
X804062Y10444886D01*
X795172Y10429138D01*
X787908Y10412526D01*
X782421Y10395305D01*
X778713Y10377576D01*
X776833Y10359542D01*
X776833Y10341457D01*
X778713Y10323423D01*
X782421Y10305694D01*
X787908Y10288473D01*
X795172Y10271861D01*
X804062Y10256113D01*
X814578Y10241330D01*
X826516Y10227716D01*
X839825Y10215422D01*
X854303Y10204551D01*
X869848Y10195255D01*
X886256Y10187584D01*
X903325Y10181590D01*
X920953Y10177475D01*
X938936Y10175138D01*
G37*
G36*
X5440121Y10174681D02*
G01*
X5458206Y10176052D01*
X5475986Y10179304D01*
X5493410Y10184384D01*
X5510174Y10191191D01*
X5526125Y10199725D01*
X5541162Y10209834D01*
X5555081Y10221417D01*
X5567730Y10234371D01*
X5578957Y10248595D01*
X5588660Y10263886D01*
X5596788Y10280040D01*
X5603138Y10297007D01*
X5607761Y10314533D01*
X5610555Y10332415D01*
X5611469Y10350500D01*
X5610555Y10368584D01*
X5607761Y10386466D01*
X5603138Y10403992D01*
X5596788Y10420959D01*
X5588660Y10437114D01*
X5578957Y10452404D01*
X5567730Y10466628D01*
X5555081Y10479582D01*
X5541162Y10491165D01*
X5526125Y10501274D01*
X5510174Y10509808D01*
X5493410Y10516616D01*
X5475986Y10521696D01*
X5458206Y10524947D01*
X5440121Y10526318D01*
X5422036Y10525861D01*
X5404053Y10523524D01*
X5386425Y10519410D01*
X5369356Y10513415D01*
X5352948Y10505744D01*
X5337403Y10496448D01*
X5322925Y10485577D01*
X5309616Y10473283D01*
X5297678Y10459669D01*
X5287162Y10444886D01*
X5278272Y10429138D01*
X5271008Y10412526D01*
X5265521Y10395305D01*
X5261813Y10377576D01*
X5259933Y10359542D01*
X5259933Y10341457D01*
X5261813Y10323423D01*
X5265521Y10305694D01*
X5271008Y10288473D01*
X5278272Y10271861D01*
X5287162Y10256113D01*
X5297678Y10241330D01*
X5309616Y10227716D01*
X5322925Y10215422D01*
X5337403Y10204551D01*
X5352948Y10195255D01*
X5369356Y10187584D01*
X5386425Y10181590D01*
X5404053Y10177475D01*
X5422036Y10175138D01*
G37*
G36*
X3523335Y10590428D02*
G01*
X3537864Y10590428D01*
X3552291Y10592257D01*
X3566414Y10595864D01*
X3579926Y10601248D01*
X3592677Y10608259D01*
X3604463Y10616793D01*
X3615080Y10626750D01*
X3624376Y10637977D01*
X3632149Y10650270D01*
X3638346Y10663428D01*
X3642868Y10677296D01*
X3645560Y10691571D01*
X3646474Y10706100D01*
X3645560Y10720628D01*
X3642868Y10734903D01*
X3638346Y10748772D01*
X3632149Y10761929D01*
X3624376Y10774222D01*
X3615080Y10785449D01*
X3604463Y10795406D01*
X3592677Y10803940D01*
X3579926Y10810951D01*
X3566414Y10816336D01*
X3552291Y10819942D01*
X3537864Y10821771D01*
X3523335Y10821771D01*
X3508908Y10819942D01*
X3494786Y10816336D01*
X3481273Y10810951D01*
X3468522Y10803940D01*
X3456736Y10795406D01*
X3446119Y10785449D01*
X3436823Y10774222D01*
X3429050Y10761929D01*
X3422853Y10748772D01*
X3418332Y10734903D01*
X3415639Y10720628D01*
X3414725Y10706100D01*
X3415639Y10691571D01*
X3418332Y10677296D01*
X3422853Y10663428D01*
X3429050Y10650270D01*
X3436823Y10637977D01*
X3446119Y10626750D01*
X3456736Y10616793D01*
X3468522Y10608259D01*
X3481273Y10601248D01*
X3494786Y10595864D01*
X3508908Y10592257D01*
G37*
G36*
X2761335Y10590428D02*
G01*
X2775864Y10590428D01*
X2790291Y10592257D01*
X2804414Y10595864D01*
X2817926Y10601248D01*
X2830677Y10608259D01*
X2842463Y10616793D01*
X2853080Y10626750D01*
X2862376Y10637977D01*
X2870149Y10650270D01*
X2876346Y10663428D01*
X2880868Y10677296D01*
X2883560Y10691571D01*
X2884474Y10706100D01*
X2883560Y10720628D01*
X2880868Y10734903D01*
X2876346Y10748772D01*
X2870149Y10761929D01*
X2862376Y10774222D01*
X2853080Y10785449D01*
X2842463Y10795406D01*
X2830677Y10803940D01*
X2817926Y10810951D01*
X2804414Y10816336D01*
X2790291Y10819942D01*
X2775864Y10821771D01*
X2761335Y10821771D01*
X2746908Y10819942D01*
X2732786Y10816336D01*
X2719273Y10810951D01*
X2706522Y10803940D01*
X2694736Y10795406D01*
X2684119Y10785449D01*
X2674823Y10774222D01*
X2667050Y10761929D01*
X2660853Y10748772D01*
X2656332Y10734903D01*
X2653639Y10720628D01*
X2652725Y10706100D01*
X2653639Y10691571D01*
X2656332Y10677296D01*
X2660853Y10663428D01*
X2667050Y10650270D01*
X2674823Y10637977D01*
X2684119Y10626750D01*
X2694736Y10616793D01*
X2706522Y10608259D01*
X2719273Y10601248D01*
X2732786Y10595864D01*
X2746908Y10592257D01*
G37*
G36*
X2253335Y10590428D02*
G01*
X2267864Y10590428D01*
X2282291Y10592257D01*
X2296414Y10595864D01*
X2309926Y10601248D01*
X2322677Y10608259D01*
X2334463Y10616793D01*
X2345080Y10626750D01*
X2354376Y10637977D01*
X2362149Y10650270D01*
X2368346Y10663428D01*
X2372868Y10677296D01*
X2375560Y10691571D01*
X2376474Y10706100D01*
X2375560Y10720628D01*
X2372868Y10734903D01*
X2368346Y10748772D01*
X2362149Y10761929D01*
X2354376Y10774222D01*
X2345080Y10785449D01*
X2334463Y10795406D01*
X2322677Y10803940D01*
X2309926Y10810951D01*
X2296414Y10816336D01*
X2282291Y10819942D01*
X2267864Y10821771D01*
X2253335Y10821771D01*
X2238908Y10819942D01*
X2224786Y10816336D01*
X2211273Y10810951D01*
X2198522Y10803940D01*
X2186736Y10795406D01*
X2176119Y10785449D01*
X2166823Y10774222D01*
X2159050Y10761929D01*
X2152853Y10748772D01*
X2148332Y10734903D01*
X2145639Y10720628D01*
X2144725Y10706100D01*
X2145639Y10691571D01*
X2148332Y10677296D01*
X2152853Y10663428D01*
X2159050Y10650270D01*
X2166823Y10637977D01*
X2176119Y10626750D01*
X2186736Y10616793D01*
X2198522Y10608259D01*
X2211273Y10601248D01*
X2224786Y10595864D01*
X2238908Y10592257D01*
G37*
G36*
X3015335Y10590428D02*
G01*
X3029864Y10590428D01*
X3044291Y10592257D01*
X3058414Y10595864D01*
X3071926Y10601248D01*
X3084677Y10608259D01*
X3096463Y10616793D01*
X3107080Y10626750D01*
X3116376Y10637977D01*
X3124149Y10650270D01*
X3130346Y10663428D01*
X3134868Y10677296D01*
X3137560Y10691571D01*
X3138474Y10706100D01*
X3137560Y10720628D01*
X3134868Y10734903D01*
X3130346Y10748772D01*
X3124149Y10761929D01*
X3116376Y10774222D01*
X3107080Y10785449D01*
X3096463Y10795406D01*
X3084677Y10803940D01*
X3071926Y10810951D01*
X3058414Y10816336D01*
X3044291Y10819942D01*
X3029864Y10821771D01*
X3015335Y10821771D01*
X3000908Y10819942D01*
X2986786Y10816336D01*
X2973273Y10810951D01*
X2960522Y10803940D01*
X2948736Y10795406D01*
X2938119Y10785449D01*
X2928823Y10774222D01*
X2921050Y10761929D01*
X2914853Y10748772D01*
X2910332Y10734903D01*
X2907639Y10720628D01*
X2906725Y10706100D01*
X2907639Y10691571D01*
X2910332Y10677296D01*
X2914853Y10663428D01*
X2921050Y10650270D01*
X2928823Y10637977D01*
X2938119Y10626750D01*
X2948736Y10616793D01*
X2960522Y10608259D01*
X2973273Y10601248D01*
X2986786Y10595864D01*
X3000908Y10592257D01*
G37*
G36*
X3269335Y10590428D02*
G01*
X3283864Y10590428D01*
X3298291Y10592257D01*
X3312414Y10595864D01*
X3325926Y10601248D01*
X3338677Y10608259D01*
X3350463Y10616793D01*
X3361080Y10626750D01*
X3370376Y10637977D01*
X3378149Y10650270D01*
X3384346Y10663428D01*
X3388868Y10677296D01*
X3391560Y10691571D01*
X3392474Y10706100D01*
X3391560Y10720628D01*
X3388868Y10734903D01*
X3384346Y10748772D01*
X3378149Y10761929D01*
X3370376Y10774222D01*
X3361080Y10785449D01*
X3350463Y10795406D01*
X3338677Y10803940D01*
X3325926Y10810951D01*
X3312414Y10816336D01*
X3298291Y10819942D01*
X3283864Y10821771D01*
X3269335Y10821771D01*
X3254908Y10819942D01*
X3240786Y10816336D01*
X3227273Y10810951D01*
X3214522Y10803940D01*
X3202736Y10795406D01*
X3192119Y10785449D01*
X3182823Y10774222D01*
X3175050Y10761929D01*
X3168853Y10748772D01*
X3164332Y10734903D01*
X3161639Y10720628D01*
X3160725Y10706100D01*
X3161639Y10691571D01*
X3164332Y10677296D01*
X3168853Y10663428D01*
X3175050Y10650270D01*
X3182823Y10637977D01*
X3192119Y10626750D01*
X3202736Y10616793D01*
X3214522Y10608259D01*
X3227273Y10601248D01*
X3240786Y10595864D01*
X3254908Y10592257D01*
G37*
G36*
X2507335Y10590428D02*
G01*
X2521864Y10590428D01*
X2536291Y10592257D01*
X2550414Y10595864D01*
X2563926Y10601248D01*
X2576677Y10608259D01*
X2588463Y10616793D01*
X2599080Y10626750D01*
X2608376Y10637977D01*
X2616149Y10650270D01*
X2622346Y10663428D01*
X2626868Y10677296D01*
X2629560Y10691571D01*
X2630474Y10706100D01*
X2629560Y10720628D01*
X2626868Y10734903D01*
X2622346Y10748772D01*
X2616149Y10761929D01*
X2608376Y10774222D01*
X2599080Y10785449D01*
X2588463Y10795406D01*
X2576677Y10803940D01*
X2563926Y10810951D01*
X2550414Y10816336D01*
X2536291Y10819942D01*
X2521864Y10821771D01*
X2507335Y10821771D01*
X2492908Y10819942D01*
X2478786Y10816336D01*
X2465273Y10810951D01*
X2452522Y10803940D01*
X2440736Y10795406D01*
X2430119Y10785449D01*
X2420823Y10774222D01*
X2413050Y10761929D01*
X2406853Y10748772D01*
X2402332Y10734903D01*
X2399639Y10720628D01*
X2398725Y10706100D01*
X2399639Y10691571D01*
X2402332Y10677296D01*
X2406853Y10663428D01*
X2413050Y10650270D01*
X2420823Y10637977D01*
X2430119Y10626750D01*
X2440736Y10616793D01*
X2452522Y10608259D01*
X2465273Y10601248D01*
X2478786Y10595864D01*
X2492908Y10592257D01*
G37*
G36*
X4031335Y10590428D02*
G01*
X4045864Y10590428D01*
X4060291Y10592257D01*
X4074414Y10595864D01*
X4087926Y10601248D01*
X4100677Y10608259D01*
X4112463Y10616793D01*
X4123080Y10626750D01*
X4132376Y10637977D01*
X4140149Y10650270D01*
X4146346Y10663428D01*
X4150868Y10677296D01*
X4153560Y10691571D01*
X4154474Y10706100D01*
X4153560Y10720628D01*
X4150868Y10734903D01*
X4146346Y10748772D01*
X4140149Y10761929D01*
X4132376Y10774222D01*
X4123080Y10785449D01*
X4112463Y10795406D01*
X4100677Y10803940D01*
X4087926Y10810951D01*
X4074414Y10816336D01*
X4060291Y10819942D01*
X4045864Y10821771D01*
X4031335Y10821771D01*
X4016908Y10819942D01*
X4002786Y10816336D01*
X3999687Y10815066D01*
X3995826Y10814354D01*
X3991965Y10815167D01*
X3988765Y10817352D01*
X3343148Y11462918D01*
X3340963Y11466220D01*
X3340201Y11470132D01*
X3340150Y12224258D01*
X3338982Y12232538D01*
X3336442Y12240158D01*
X3332530Y12247118D01*
X3327146Y12253671D01*
X3144012Y12436805D01*
X3141827Y12440056D01*
X3141014Y12443968D01*
X3141827Y12447879D01*
X3144012Y12451130D01*
X3147314Y12453366D01*
X3151174Y12454128D01*
X3502101Y12454128D01*
X3508400Y12454839D01*
X3513886Y12456769D01*
X3518763Y12459817D01*
X3522878Y12463932D01*
X3525926Y12468809D01*
X3527856Y12474295D01*
X3528568Y12480594D01*
X3528568Y12595301D01*
X3527856Y12601600D01*
X3525926Y12607086D01*
X3522878Y12611963D01*
X3518763Y12616078D01*
X3513886Y12619126D01*
X3508400Y12621056D01*
X3502101Y12621768D01*
X3111042Y12621768D01*
X3104743Y12621056D01*
X3099257Y12619126D01*
X3094380Y12616078D01*
X3092856Y12614554D01*
X3089859Y12612471D01*
X3086303Y12611608D01*
X3082645Y12612065D01*
X3079394Y12613741D01*
X3077006Y12616484D01*
X3075381Y12619126D01*
X3066034Y12631064D01*
X3055264Y12641834D01*
X3043326Y12651181D01*
X3030321Y12659055D01*
X3016453Y12665303D01*
X3001924Y12669824D01*
X2986989Y12672568D01*
X2971800Y12673482D01*
X2956610Y12672568D01*
X2941675Y12669824D01*
X2927146Y12665303D01*
X2913278Y12659055D01*
X2900273Y12651181D01*
X2888335Y12641834D01*
X2877566Y12631064D01*
X2868218Y12619126D01*
X2860344Y12606121D01*
X2854096Y12592253D01*
X2849575Y12577724D01*
X2846832Y12562789D01*
X2845917Y12547600D01*
X2846832Y12532410D01*
X2849575Y12517475D01*
X2854096Y12502946D01*
X2860344Y12489078D01*
X2868218Y12476073D01*
X2877566Y12464135D01*
X2888335Y12453366D01*
X2900273Y12444018D01*
X2913278Y12436144D01*
X2927146Y12429896D01*
X2941675Y12425375D01*
X2954172Y12423089D01*
X2958287Y12421311D01*
X2961233Y12417958D01*
X2962452Y12413691D01*
X2961741Y12409271D01*
X2959201Y12405614D01*
X2955340Y12403378D01*
X2939846Y12398603D01*
X2925978Y12392355D01*
X2912973Y12384481D01*
X2901035Y12375134D01*
X2890266Y12364364D01*
X2880918Y12352426D01*
X2873044Y12339421D01*
X2868930Y12330277D01*
X2866694Y12327128D01*
X2863443Y12325045D01*
X2859684Y12324283D01*
X2811272Y12324283D01*
X2807360Y12325096D01*
X2804058Y12327280D01*
X2271064Y12860324D01*
X2268626Y12864134D01*
X2268118Y12868605D01*
X2269591Y12872821D01*
X2272741Y12876022D01*
X2276957Y12877596D01*
X2282291Y12878257D01*
X2296414Y12881864D01*
X2309926Y12887248D01*
X2322677Y12894259D01*
X2334463Y12902793D01*
X2345080Y12912750D01*
X2354376Y12923977D01*
X2362149Y12936270D01*
X2368346Y12949428D01*
X2372868Y12963296D01*
X2375560Y12977571D01*
X2376474Y12992100D01*
X2375560Y13006628D01*
X2372868Y13020903D01*
X2368346Y13034771D01*
X2362149Y13047929D01*
X2354376Y13060222D01*
X2345080Y13071449D01*
X2334463Y13081406D01*
X2322677Y13089940D01*
X2309926Y13096951D01*
X2296414Y13102336D01*
X2282291Y13105942D01*
X2267864Y13107771D01*
X2253335Y13107771D01*
X2238908Y13105942D01*
X2224786Y13102336D01*
X2211273Y13096951D01*
X2198522Y13089940D01*
X2186736Y13081406D01*
X2176119Y13071449D01*
X2166823Y13060222D01*
X2159050Y13047929D01*
X2152853Y13034771D01*
X2148332Y13020903D01*
X2145893Y13007949D01*
X2144166Y13003936D01*
X2140915Y13000990D01*
X2136698Y12999720D01*
X2132380Y13000278D01*
X2128723Y13002666D01*
X2011172Y13120166D01*
X2008987Y13123468D01*
X2008225Y13127380D01*
X2008225Y13393064D01*
X2007260Y13407948D01*
X2004568Y13422223D01*
X2000046Y13436041D01*
X1993849Y13449249D01*
X1986076Y13461492D01*
X1976780Y13472718D01*
X1966163Y13482675D01*
X1954377Y13491260D01*
X1941626Y13498271D01*
X1928114Y13503605D01*
X1913991Y13507212D01*
X1899564Y13509040D01*
X1885035Y13509040D01*
X1870608Y13507212D01*
X1856486Y13503605D01*
X1842973Y13498271D01*
X1830222Y13491260D01*
X1818436Y13482675D01*
X1807819Y13472718D01*
X1798523Y13461492D01*
X1790750Y13449249D01*
X1784553Y13436041D01*
X1780032Y13422223D01*
X1777339Y13407948D01*
X1776374Y13393064D01*
X1776374Y13073735D01*
X1777339Y13058851D01*
X1780032Y13044576D01*
X1784553Y13030758D01*
X1790750Y13017550D01*
X1798523Y13005308D01*
X1807819Y12994081D01*
X1818436Y12984124D01*
X1830222Y12975539D01*
X1842973Y12968528D01*
X1856486Y12963194D01*
X1870608Y12959588D01*
X1885035Y12957759D01*
X1899564Y12957759D01*
X1913991Y12959588D01*
X1928114Y12963194D01*
X1941626Y12968528D01*
X1954377Y12975539D01*
X1966163Y12984124D01*
X1976780Y12994081D01*
X1986686Y13006120D01*
X1989988Y13008762D01*
X1994052Y13009829D01*
X1998167Y13009168D01*
X2001723Y13006882D01*
X2759557Y12249048D01*
X2766263Y12244019D01*
X2773426Y12240463D01*
X2781096Y12238278D01*
X2789529Y12237466D01*
X2859684Y12237466D01*
X2863443Y12236754D01*
X2866694Y12234672D01*
X2868930Y12231522D01*
X2873044Y12222378D01*
X2880918Y12209373D01*
X2890266Y12197435D01*
X2893060Y12194590D01*
X2895295Y12191339D01*
X2896057Y12187428D01*
X2895295Y12183516D01*
X2893060Y12180265D01*
X2889758Y12178030D01*
X2885897Y12177268D01*
X2862884Y12177268D01*
X2856585Y12176556D01*
X2851099Y12174626D01*
X2846222Y12171578D01*
X2842107Y12167463D01*
X2839059Y12162586D01*
X2837129Y12157100D01*
X2836418Y12150801D01*
X2836418Y12036094D01*
X2837129Y12029795D01*
X2839059Y12024309D01*
X2842107Y12019432D01*
X2846222Y12015317D01*
X2851099Y12012269D01*
X2856585Y12010339D01*
X2862884Y12009628D01*
X3057601Y12009628D01*
X3063900Y12010339D01*
X3069386Y12012269D01*
X3074263Y12015317D01*
X3078378Y12019432D01*
X3081426Y12024309D01*
X3083356Y12029795D01*
X3084068Y12036094D01*
X3084068Y12150801D01*
X3083356Y12157100D01*
X3081426Y12162586D01*
X3078378Y12167463D01*
X3074263Y12171578D01*
X3071926Y12173051D01*
X3069234Y12175490D01*
X3067608Y12178741D01*
X3067202Y12182348D01*
X3068066Y12185853D01*
X3070148Y12188850D01*
X3078734Y12197435D01*
X3088081Y12209373D01*
X3095955Y12222378D01*
X3102203Y12236246D01*
X3106724Y12250775D01*
X3109468Y12265710D01*
X3110382Y12280900D01*
X3109468Y12296089D01*
X3106724Y12311024D01*
X3102203Y12325553D01*
X3100171Y12330023D01*
X3099308Y12333935D01*
X3099968Y12337846D01*
X3102152Y12341250D01*
X3105454Y12343536D01*
X3109366Y12344349D01*
X3113328Y12343587D01*
X3116630Y12341352D01*
X3250387Y12207646D01*
X3252571Y12204344D01*
X3253384Y12200432D01*
X3253384Y11446256D01*
X3254552Y11438026D01*
X3257092Y11430406D01*
X3261004Y11423446D01*
X3266389Y11416893D01*
X3466592Y11216690D01*
X3468776Y11213439D01*
X3469589Y11209528D01*
X3468776Y11205667D01*
X3466592Y11202365D01*
X3463290Y11200130D01*
X3459429Y11199368D01*
X3111042Y11199368D01*
X3104743Y11198656D01*
X3099257Y11196726D01*
X3094380Y11193678D01*
X3090265Y11189563D01*
X3087217Y11184686D01*
X3084372Y11181689D01*
X3080562Y11180114D01*
X3079292Y11180114D01*
X3081578Y11178590D01*
X3083814Y11175288D01*
X3084576Y11171377D01*
X3084576Y11079022D01*
X3083814Y11075111D01*
X3081578Y11071809D01*
X3078327Y11069624D01*
X3074416Y11068862D01*
X3015437Y11068862D01*
X3015437Y11012779D01*
X3017621Y11013744D01*
X3030626Y11021618D01*
X3042564Y11030966D01*
X3053334Y11041735D01*
X3062681Y11053673D01*
X3066135Y11059363D01*
X3068980Y11062411D01*
X3072790Y11064036D01*
X3077006Y11063986D01*
X3080816Y11062309D01*
X3083610Y11059210D01*
X3084931Y11055197D01*
X3085287Y11051895D01*
X3087217Y11046409D01*
X3090265Y11041532D01*
X3094380Y11037417D01*
X3099257Y11034369D01*
X3104743Y11032439D01*
X3111042Y11031728D01*
X3502101Y11031728D01*
X3508400Y11032439D01*
X3513886Y11034369D01*
X3518763Y11037417D01*
X3522878Y11041532D01*
X3525926Y11046409D01*
X3527856Y11051895D01*
X3528568Y11058194D01*
X3528568Y11130229D01*
X3529329Y11134090D01*
X3531565Y11137392D01*
X3534816Y11139576D01*
X3538728Y11140389D01*
X3542639Y11139576D01*
X3545890Y11137392D01*
X3927348Y10755934D01*
X3929430Y10752886D01*
X3930294Y10749330D01*
X3929837Y10745622D01*
X3926332Y10734903D01*
X3923639Y10720628D01*
X3922725Y10706100D01*
X3923639Y10691571D01*
X3926332Y10677296D01*
X3930853Y10663428D01*
X3937050Y10650270D01*
X3944823Y10637977D01*
X3954119Y10626750D01*
X3964736Y10616793D01*
X3976522Y10608259D01*
X3989273Y10601248D01*
X4002786Y10595864D01*
X4016908Y10592257D01*
G37*
G36*
X3835958Y10602315D02*
G01*
X3846677Y10608259D01*
X3858463Y10616793D01*
X3869080Y10626750D01*
X3878376Y10637977D01*
X3886149Y10650270D01*
X3888282Y10654741D01*
X3835958Y10654741D01*
G37*
G36*
X3733241Y10602315D02*
G01*
X3733241Y10654741D01*
X3680917Y10654741D01*
X3683050Y10650270D01*
X3690823Y10637977D01*
X3700119Y10626750D01*
X3710736Y10616793D01*
X3722522Y10608259D01*
G37*
G36*
X3835958Y10757458D02*
G01*
X3888282Y10757458D01*
X3886149Y10761929D01*
X3878376Y10774222D01*
X3869080Y10785449D01*
X3858463Y10795406D01*
X3846677Y10803940D01*
X3835958Y10809884D01*
G37*
G36*
X3680917Y10757458D02*
G01*
X3733241Y10757458D01*
X3733241Y10809884D01*
X3722522Y10803940D01*
X3710736Y10795406D01*
X3700119Y10785449D01*
X3690823Y10774222D01*
X3683050Y10761929D01*
G37*
G36*
X914400Y10868152D02*
G01*
X928065Y10869066D01*
X941476Y10871758D01*
X954430Y10876127D01*
X966724Y10882172D01*
X978103Y10889792D01*
X988364Y10898835D01*
X997407Y10909096D01*
X1005027Y10920476D01*
X1011072Y10932769D01*
X1015441Y10945723D01*
X1018133Y10959134D01*
X1019048Y10972800D01*
X1018133Y10986465D01*
X1015441Y10999876D01*
X1011072Y11012830D01*
X1005027Y11025124D01*
X997407Y11036503D01*
X988364Y11046764D01*
X978103Y11055807D01*
X966724Y11063427D01*
X954430Y11069472D01*
X941476Y11073841D01*
X928065Y11076533D01*
X914400Y11077448D01*
X900734Y11076533D01*
X887323Y11073841D01*
X874369Y11069472D01*
X862076Y11063427D01*
X850696Y11055807D01*
X840435Y11046764D01*
X831392Y11036503D01*
X823772Y11025124D01*
X817727Y11012830D01*
X813358Y10999876D01*
X810666Y10986465D01*
X809752Y10972800D01*
X810666Y10959134D01*
X813358Y10945723D01*
X817727Y10932769D01*
X823772Y10920476D01*
X831392Y10909096D01*
X840435Y10898835D01*
X850696Y10889792D01*
X862076Y10882172D01*
X874369Y10876127D01*
X887323Y10871758D01*
X900734Y10869066D01*
G37*
G36*
X2902762Y11012779D02*
G01*
X2902762Y11068862D01*
X2846679Y11068862D01*
X2847644Y11066678D01*
X2855518Y11053673D01*
X2864866Y11041735D01*
X2875635Y11030966D01*
X2887573Y11021618D01*
X2900578Y11013744D01*
G37*
G36*
X5499100Y11024717D02*
G01*
X5514289Y11025632D01*
X5529224Y11028375D01*
X5543753Y11032896D01*
X5557621Y11039144D01*
X5570626Y11047018D01*
X5582564Y11056366D01*
X5593334Y11067135D01*
X5602681Y11079073D01*
X5610555Y11092078D01*
X5616803Y11105946D01*
X5621324Y11120475D01*
X5624068Y11135410D01*
X5624982Y11150600D01*
X5624068Y11165789D01*
X5621324Y11180724D01*
X5616803Y11195253D01*
X5610555Y11209121D01*
X5602681Y11222126D01*
X5593334Y11234064D01*
X5582564Y11244834D01*
X5570626Y11254181D01*
X5557621Y11262055D01*
X5543753Y11268303D01*
X5529224Y11272824D01*
X5514289Y11275568D01*
X5499100Y11276482D01*
X5483910Y11275568D01*
X5468975Y11272824D01*
X5454446Y11268303D01*
X5440578Y11262055D01*
X5427573Y11254181D01*
X5415635Y11244834D01*
X5404866Y11234064D01*
X5395518Y11222126D01*
X5387644Y11209121D01*
X5381396Y11195253D01*
X5376875Y11180724D01*
X5374132Y11165789D01*
X5373217Y11150600D01*
X5374132Y11135410D01*
X5376875Y11120475D01*
X5381396Y11105946D01*
X5387644Y11092078D01*
X5395518Y11079073D01*
X5404866Y11067135D01*
X5415635Y11056366D01*
X5427573Y11047018D01*
X5440578Y11039144D01*
X5454446Y11032896D01*
X5468975Y11028375D01*
X5483910Y11025632D01*
G37*
G36*
X5107228Y11101832D02*
G01*
X5292801Y11101832D01*
X5299100Y11102543D01*
X5304586Y11104473D01*
X5309463Y11107521D01*
X5313578Y11111636D01*
X5316626Y11116513D01*
X5318556Y11121999D01*
X5319268Y11128298D01*
X5319268Y11147501D01*
X5318556Y11153800D01*
X5316626Y11159286D01*
X5313578Y11164163D01*
X5309463Y11168278D01*
X5304586Y11171326D01*
X5299100Y11173256D01*
X5292801Y11173968D01*
X5107228Y11173968D01*
X5100929Y11173256D01*
X5095443Y11171326D01*
X5090566Y11168278D01*
X5086451Y11164163D01*
X5083403Y11159286D01*
X5081473Y11153800D01*
X5080762Y11147501D01*
X5080762Y11128298D01*
X5081473Y11121999D01*
X5083403Y11116513D01*
X5086451Y11111636D01*
X5090566Y11107521D01*
X5095443Y11104473D01*
X5100929Y11102543D01*
G37*
G36*
X914400Y11122152D02*
G01*
X928065Y11123066D01*
X941476Y11125758D01*
X954430Y11130127D01*
X966724Y11136172D01*
X978103Y11143792D01*
X988364Y11152835D01*
X997407Y11163096D01*
X1005027Y11174476D01*
X1011072Y11186769D01*
X1015441Y11199723D01*
X1018133Y11213134D01*
X1019048Y11226800D01*
X1018133Y11240465D01*
X1015441Y11253876D01*
X1011072Y11266830D01*
X1005027Y11279124D01*
X997407Y11290503D01*
X988364Y11300764D01*
X978103Y11309807D01*
X966724Y11317427D01*
X954430Y11323472D01*
X941476Y11327841D01*
X928065Y11330533D01*
X914400Y11331448D01*
X900734Y11330533D01*
X887323Y11327841D01*
X874369Y11323472D01*
X862076Y11317427D01*
X850696Y11309807D01*
X840435Y11300764D01*
X831392Y11290503D01*
X823772Y11279124D01*
X817727Y11266830D01*
X813358Y11253876D01*
X810666Y11240465D01*
X809752Y11226800D01*
X810666Y11213134D01*
X813358Y11199723D01*
X817727Y11186769D01*
X823772Y11174476D01*
X831392Y11163096D01*
X840435Y11152835D01*
X850696Y11143792D01*
X862076Y11136172D01*
X874369Y11130127D01*
X887323Y11125758D01*
X900734Y11123066D01*
G37*
G36*
X2846679Y11181537D02*
G01*
X2902762Y11181537D01*
X2902762Y11237620D01*
X2900578Y11236655D01*
X2887573Y11228781D01*
X2875635Y11219434D01*
X2864866Y11208664D01*
X2855518Y11196726D01*
X2847644Y11183721D01*
G37*
G36*
X3015437Y11181537D02*
G01*
X3073247Y11181537D01*
X3069894Y11184839D01*
X3062681Y11196726D01*
X3053334Y11208664D01*
X3042564Y11219434D01*
X3030626Y11228781D01*
X3017621Y11236655D01*
X3015437Y11237620D01*
G37*
G36*
X2946400Y11266017D02*
G01*
X2961589Y11266932D01*
X2976524Y11269675D01*
X2991053Y11274196D01*
X3004921Y11280444D01*
X3017926Y11288318D01*
X3029864Y11297666D01*
X3040634Y11308435D01*
X3049981Y11320373D01*
X3057855Y11333378D01*
X3064103Y11347246D01*
X3068624Y11361775D01*
X3071368Y11376710D01*
X3072282Y11391900D01*
X3071368Y11407089D01*
X3068624Y11422024D01*
X3064103Y11436553D01*
X3057855Y11450421D01*
X3049981Y11463426D01*
X3040634Y11475364D01*
X3029864Y11486134D01*
X3017926Y11495481D01*
X3004921Y11503355D01*
X2995472Y11507622D01*
X2992272Y11509857D01*
X2990189Y11513210D01*
X2989478Y11517020D01*
X2990342Y11520881D01*
X2992526Y11524132D01*
X2995828Y11526266D01*
X2999638Y11527028D01*
X3044901Y11527028D01*
X3051200Y11527739D01*
X3056686Y11529669D01*
X3061563Y11532717D01*
X3065678Y11536832D01*
X3068726Y11541709D01*
X3070656Y11547195D01*
X3071368Y11553494D01*
X3071368Y11668201D01*
X3070656Y11674500D01*
X3068726Y11679986D01*
X3065678Y11684863D01*
X3061563Y11688978D01*
X3056686Y11692026D01*
X3051200Y11693956D01*
X3044901Y11694668D01*
X2850184Y11694668D01*
X2843885Y11693956D01*
X2838399Y11692026D01*
X2833522Y11688978D01*
X2829407Y11684863D01*
X2826359Y11679986D01*
X2824429Y11674500D01*
X2823718Y11668201D01*
X2823718Y11600484D01*
X2822956Y11596624D01*
X2820720Y11593322D01*
X2817469Y11591137D01*
X2813558Y11590324D01*
X2809646Y11591137D01*
X2806395Y11593322D01*
X1684680Y12714986D01*
X1682496Y12718288D01*
X1681734Y12722199D01*
X1681734Y12960959D01*
X1682394Y12964668D01*
X1684375Y12967817D01*
X1687372Y12970052D01*
X1690014Y12971373D01*
X1701241Y12978892D01*
X1711401Y12987782D01*
X1720342Y12997942D01*
X1727860Y13009219D01*
X1733804Y13021360D01*
X1738172Y13034162D01*
X1740814Y13047421D01*
X1741728Y13061238D01*
X1741728Y13405561D01*
X1740814Y13419378D01*
X1738172Y13432637D01*
X1733804Y13445439D01*
X1727860Y13457580D01*
X1720342Y13468857D01*
X1711401Y13479018D01*
X1701241Y13487907D01*
X1690014Y13495426D01*
X1677873Y13501420D01*
X1665071Y13505738D01*
X1651812Y13508380D01*
X1638300Y13509294D01*
X1624787Y13508380D01*
X1611528Y13505738D01*
X1598726Y13501420D01*
X1586585Y13495426D01*
X1575358Y13487907D01*
X1565198Y13479018D01*
X1556258Y13468857D01*
X1548739Y13457580D01*
X1542796Y13445439D01*
X1538427Y13432637D01*
X1535785Y13419378D01*
X1534871Y13405561D01*
X1534871Y13061238D01*
X1535785Y13047421D01*
X1538427Y13034162D01*
X1542796Y13021360D01*
X1548739Y13009219D01*
X1556258Y12997942D01*
X1565198Y12987782D01*
X1575358Y12978892D01*
X1586585Y12971373D01*
X1589227Y12970052D01*
X1592224Y12967817D01*
X1594205Y12964668D01*
X1594916Y12960959D01*
X1594916Y12698323D01*
X1596085Y12690094D01*
X1598625Y12682474D01*
X1602536Y12675514D01*
X1607921Y12668961D01*
X2827375Y11449558D01*
X2829610Y11446154D01*
X2830322Y11442141D01*
X2829458Y11438178D01*
X2828696Y11436553D01*
X2824175Y11422024D01*
X2821432Y11407089D01*
X2820517Y11391900D01*
X2821432Y11376710D01*
X2824175Y11361775D01*
X2828696Y11347246D01*
X2834944Y11333378D01*
X2842818Y11320373D01*
X2852166Y11308435D01*
X2862935Y11297666D01*
X2874873Y11288318D01*
X2887878Y11280444D01*
X2901746Y11274196D01*
X2916275Y11269675D01*
X2931210Y11266932D01*
G37*
G36*
X914400Y11376152D02*
G01*
X928065Y11377066D01*
X941476Y11379758D01*
X954430Y11384127D01*
X966724Y11390172D01*
X978103Y11397792D01*
X988364Y11406835D01*
X997407Y11417096D01*
X1005027Y11428476D01*
X1011072Y11440769D01*
X1015441Y11453723D01*
X1018133Y11467134D01*
X1019048Y11480800D01*
X1018133Y11494465D01*
X1015441Y11507876D01*
X1011072Y11520830D01*
X1005027Y11533124D01*
X997407Y11544503D01*
X988364Y11554764D01*
X978103Y11563807D01*
X966724Y11571427D01*
X954430Y11577472D01*
X941476Y11581841D01*
X928065Y11584533D01*
X914400Y11585448D01*
X900734Y11584533D01*
X887323Y11581841D01*
X874369Y11577472D01*
X862076Y11571427D01*
X850696Y11563807D01*
X840435Y11554764D01*
X831392Y11544503D01*
X823772Y11533124D01*
X817727Y11520830D01*
X813358Y11507876D01*
X810666Y11494465D01*
X809752Y11480800D01*
X810666Y11467134D01*
X813358Y11453723D01*
X817727Y11440769D01*
X823772Y11428476D01*
X831392Y11417096D01*
X840435Y11406835D01*
X850696Y11397792D01*
X862076Y11390172D01*
X874369Y11384127D01*
X887323Y11379758D01*
X900734Y11377066D01*
G37*
G36*
X3637584Y11619230D02*
G01*
X4746701Y11619230D01*
X4753000Y11619941D01*
X4758486Y11621871D01*
X4763363Y11624919D01*
X4767478Y11629034D01*
X4770526Y11633911D01*
X4772456Y11639397D01*
X4773168Y11645696D01*
X4773168Y12163501D01*
X4772456Y12169800D01*
X4770526Y12175286D01*
X4767478Y12180163D01*
X4763363Y12184278D01*
X4758486Y12187326D01*
X4753000Y12189256D01*
X4746701Y12189968D01*
X3637584Y12189968D01*
X3631285Y12189256D01*
X3625799Y12187326D01*
X3620922Y12184278D01*
X3616807Y12180163D01*
X3613759Y12175286D01*
X3611829Y12169800D01*
X3611118Y12163501D01*
X3611118Y11645696D01*
X3611829Y11639397D01*
X3613759Y11633911D01*
X3616807Y11629034D01*
X3620922Y11624919D01*
X3625799Y11621871D01*
X3631285Y11619941D01*
G37*
G36*
X914400Y11630152D02*
G01*
X928065Y11631066D01*
X941476Y11633758D01*
X954430Y11638127D01*
X966724Y11644172D01*
X978103Y11651792D01*
X988364Y11660835D01*
X997407Y11671096D01*
X1005027Y11682476D01*
X1011072Y11694769D01*
X1015441Y11707723D01*
X1018133Y11721134D01*
X1019048Y11734800D01*
X1018133Y11748465D01*
X1015441Y11761876D01*
X1011072Y11774830D01*
X1005027Y11787124D01*
X997407Y11798503D01*
X988364Y11808764D01*
X978103Y11817807D01*
X966724Y11825427D01*
X954430Y11831472D01*
X941476Y11835841D01*
X928065Y11838533D01*
X914400Y11839448D01*
X900734Y11838533D01*
X887323Y11835841D01*
X874369Y11831472D01*
X862076Y11825427D01*
X850696Y11817807D01*
X840435Y11808764D01*
X831392Y11798503D01*
X823772Y11787124D01*
X817727Y11774830D01*
X813358Y11761876D01*
X810666Y11748465D01*
X809752Y11734800D01*
X810666Y11721134D01*
X813358Y11707723D01*
X817727Y11694769D01*
X823772Y11682476D01*
X831392Y11671096D01*
X840435Y11660835D01*
X850696Y11651792D01*
X862076Y11644172D01*
X874369Y11638127D01*
X887323Y11633758D01*
X900734Y11631066D01*
G37*
G36*
X914400Y11884152D02*
G01*
X928065Y11885066D01*
X941476Y11887758D01*
X954430Y11892127D01*
X966724Y11898172D01*
X978103Y11905792D01*
X988364Y11914835D01*
X997407Y11925096D01*
X1005027Y11936476D01*
X1011072Y11948769D01*
X1015441Y11961723D01*
X1018133Y11975134D01*
X1019048Y11988800D01*
X1018133Y12002465D01*
X1015441Y12015876D01*
X1011072Y12028830D01*
X1005027Y12041124D01*
X997407Y12052503D01*
X988364Y12062764D01*
X978103Y12071807D01*
X966724Y12079427D01*
X954430Y12085472D01*
X941476Y12089841D01*
X928065Y12092533D01*
X914400Y12093448D01*
X900734Y12092533D01*
X887323Y12089841D01*
X874369Y12085472D01*
X862076Y12079427D01*
X850696Y12071807D01*
X840435Y12062764D01*
X831392Y12052503D01*
X823772Y12041124D01*
X817727Y12028830D01*
X813358Y12015876D01*
X810666Y12002465D01*
X809752Y11988800D01*
X810666Y11975134D01*
X813358Y11961723D01*
X817727Y11948769D01*
X823772Y11936476D01*
X831392Y11925096D01*
X840435Y11914835D01*
X850696Y11905792D01*
X862076Y11898172D01*
X874369Y11892127D01*
X887323Y11887758D01*
X900734Y11885066D01*
G37*
G36*
X914400Y12138152D02*
G01*
X928065Y12139066D01*
X941476Y12141758D01*
X954430Y12146127D01*
X966724Y12152172D01*
X978103Y12159792D01*
X988364Y12168835D01*
X997407Y12179096D01*
X1005027Y12190476D01*
X1011072Y12202769D01*
X1015441Y12215723D01*
X1018133Y12229134D01*
X1019048Y12242800D01*
X1018133Y12256465D01*
X1015441Y12269876D01*
X1011072Y12282830D01*
X1005027Y12295124D01*
X997407Y12306503D01*
X988364Y12316764D01*
X978103Y12325807D01*
X966724Y12333427D01*
X954430Y12339472D01*
X941476Y12343841D01*
X928065Y12346533D01*
X914400Y12347448D01*
X900734Y12346533D01*
X887323Y12343841D01*
X874369Y12339472D01*
X862076Y12333427D01*
X850696Y12325807D01*
X840435Y12316764D01*
X831392Y12306503D01*
X823772Y12295124D01*
X817727Y12282830D01*
X813358Y12269876D01*
X810666Y12256465D01*
X809752Y12242800D01*
X810666Y12229134D01*
X813358Y12215723D01*
X817727Y12202769D01*
X823772Y12190476D01*
X831392Y12179096D01*
X840435Y12168835D01*
X850696Y12159792D01*
X862076Y12152172D01*
X874369Y12146127D01*
X887323Y12141758D01*
X900734Y12139066D01*
G37*
G36*
X868680Y12402921D02*
G01*
X868680Y12451080D01*
X820521Y12451080D01*
X823772Y12444476D01*
X831392Y12433096D01*
X840435Y12422835D01*
X850696Y12413792D01*
X862076Y12406172D01*
G37*
G36*
X960119Y12402921D02*
G01*
X966724Y12406172D01*
X978103Y12413792D01*
X988364Y12422835D01*
X997407Y12433096D01*
X1005027Y12444476D01*
X1008278Y12451080D01*
X960119Y12451080D01*
G37*
G36*
X5511800Y12421717D02*
G01*
X5526989Y12422632D01*
X5541924Y12425375D01*
X5556453Y12429896D01*
X5570321Y12436144D01*
X5583326Y12444018D01*
X5595264Y12453366D01*
X5606034Y12464135D01*
X5615381Y12476073D01*
X5623255Y12489078D01*
X5629503Y12502946D01*
X5634024Y12517475D01*
X5636768Y12532410D01*
X5637682Y12547600D01*
X5636768Y12562789D01*
X5634024Y12577724D01*
X5629503Y12592253D01*
X5623255Y12606121D01*
X5615381Y12619126D01*
X5606034Y12631064D01*
X5595264Y12641834D01*
X5583326Y12651181D01*
X5570321Y12659055D01*
X5556453Y12665303D01*
X5541924Y12669824D01*
X5526989Y12672568D01*
X5511800Y12673482D01*
X5496610Y12672568D01*
X5481675Y12669824D01*
X5467146Y12665303D01*
X5453278Y12659055D01*
X5440273Y12651181D01*
X5428335Y12641834D01*
X5417566Y12631064D01*
X5408218Y12619126D01*
X5400344Y12606121D01*
X5394096Y12592253D01*
X5389575Y12577724D01*
X5386832Y12562789D01*
X5385917Y12547600D01*
X5386832Y12532410D01*
X5389575Y12517475D01*
X5394096Y12502946D01*
X5400344Y12489078D01*
X5408218Y12476073D01*
X5417566Y12464135D01*
X5428335Y12453366D01*
X5440273Y12444018D01*
X5453278Y12436144D01*
X5467146Y12429896D01*
X5481675Y12425375D01*
X5496610Y12422632D01*
G37*
G36*
X5145328Y12441174D02*
G01*
X5330901Y12441174D01*
X5337200Y12441885D01*
X5342686Y12443815D01*
X5347563Y12446863D01*
X5351678Y12450978D01*
X5354726Y12455855D01*
X5356656Y12461341D01*
X5357368Y12467640D01*
X5357368Y12652959D01*
X5356656Y12659258D01*
X5354726Y12664744D01*
X5351678Y12669621D01*
X5347563Y12673736D01*
X5342686Y12676784D01*
X5337200Y12678714D01*
X5330901Y12679426D01*
X5145328Y12679426D01*
X5139029Y12678714D01*
X5133543Y12676784D01*
X5128666Y12673736D01*
X5124551Y12669621D01*
X5121503Y12664744D01*
X5119573Y12659258D01*
X5118862Y12652959D01*
X5118862Y12467640D01*
X5119573Y12461341D01*
X5121503Y12455855D01*
X5124551Y12450978D01*
X5128666Y12446863D01*
X5133543Y12443815D01*
X5139029Y12441885D01*
G37*
G36*
X820521Y12542520D02*
G01*
X868680Y12542520D01*
X868680Y12590678D01*
X862076Y12587427D01*
X850696Y12579807D01*
X840435Y12570764D01*
X831392Y12560503D01*
X823772Y12549124D01*
G37*
G36*
X960119Y12542520D02*
G01*
X1008278Y12542520D01*
X1005027Y12549124D01*
X997407Y12560503D01*
X988364Y12570764D01*
X978103Y12579807D01*
X966724Y12587427D01*
X960119Y12590678D01*
G37*
G36*
X836218Y12646152D02*
G01*
X992581Y12646152D01*
X998880Y12646863D01*
X1004366Y12648793D01*
X1009243Y12651841D01*
X1013358Y12655956D01*
X1016406Y12660833D01*
X1018336Y12666319D01*
X1019048Y12672618D01*
X1019048Y12828981D01*
X1018336Y12835280D01*
X1016406Y12840766D01*
X1013358Y12845643D01*
X1009243Y12849758D01*
X1004366Y12852806D01*
X998880Y12854736D01*
X992581Y12855448D01*
X836218Y12855448D01*
X829919Y12854736D01*
X824433Y12852806D01*
X819556Y12849758D01*
X815441Y12845643D01*
X812393Y12840766D01*
X810463Y12835280D01*
X809752Y12828981D01*
X809752Y12672618D01*
X810463Y12666319D01*
X812393Y12660833D01*
X815441Y12655956D01*
X819556Y12651841D01*
X824433Y12648793D01*
X829919Y12646863D01*
G37*
G36*
X3523335Y12876428D02*
G01*
X3537864Y12876428D01*
X3552291Y12878257D01*
X3566414Y12881864D01*
X3579926Y12887248D01*
X3592677Y12894259D01*
X3604463Y12902793D01*
X3615080Y12912750D01*
X3624376Y12923977D01*
X3632149Y12936270D01*
X3638346Y12949428D01*
X3642868Y12963296D01*
X3645560Y12977571D01*
X3646474Y12992100D01*
X3645560Y13006628D01*
X3642868Y13020903D01*
X3638346Y13034771D01*
X3632149Y13047929D01*
X3624376Y13060222D01*
X3615080Y13071449D01*
X3604463Y13081406D01*
X3592677Y13089940D01*
X3579926Y13096951D01*
X3566414Y13102336D01*
X3552291Y13105942D01*
X3537864Y13107771D01*
X3523335Y13107771D01*
X3508908Y13105942D01*
X3494786Y13102336D01*
X3481273Y13096951D01*
X3468522Y13089940D01*
X3456736Y13081406D01*
X3446119Y13071449D01*
X3436823Y13060222D01*
X3429050Y13047929D01*
X3422853Y13034771D01*
X3418332Y13020903D01*
X3415639Y13006628D01*
X3414725Y12992100D01*
X3415639Y12977571D01*
X3418332Y12963296D01*
X3422853Y12949428D01*
X3429050Y12936270D01*
X3436823Y12923977D01*
X3446119Y12912750D01*
X3456736Y12902793D01*
X3468522Y12894259D01*
X3481273Y12887248D01*
X3494786Y12881864D01*
X3508908Y12878257D01*
G37*
G36*
X4031335Y12876428D02*
G01*
X4045864Y12876428D01*
X4060291Y12878257D01*
X4074414Y12881864D01*
X4087926Y12887248D01*
X4100677Y12894259D01*
X4112463Y12902793D01*
X4123080Y12912750D01*
X4132376Y12923977D01*
X4140149Y12936270D01*
X4146346Y12949428D01*
X4150868Y12963296D01*
X4153560Y12977571D01*
X4154474Y12992100D01*
X4153560Y13006628D01*
X4150868Y13020903D01*
X4146346Y13034771D01*
X4140149Y13047929D01*
X4132376Y13060222D01*
X4123080Y13071449D01*
X4112463Y13081406D01*
X4100677Y13089940D01*
X4087926Y13096951D01*
X4074414Y13102336D01*
X4060291Y13105942D01*
X4045864Y13107771D01*
X4031335Y13107771D01*
X4016908Y13105942D01*
X4002786Y13102336D01*
X3989273Y13096951D01*
X3976522Y13089940D01*
X3964736Y13081406D01*
X3954119Y13071449D01*
X3944823Y13060222D01*
X3937050Y13047929D01*
X3930853Y13034771D01*
X3926332Y13020903D01*
X3923639Y13006628D01*
X3922725Y12992100D01*
X3923639Y12977571D01*
X3926332Y12963296D01*
X3930853Y12949428D01*
X3937050Y12936270D01*
X3944823Y12923977D01*
X3954119Y12912750D01*
X3964736Y12902793D01*
X3976522Y12894259D01*
X3989273Y12887248D01*
X4002786Y12881864D01*
X4016908Y12878257D01*
G37*
G36*
X2761335Y12876428D02*
G01*
X2775864Y12876428D01*
X2790291Y12878257D01*
X2804414Y12881864D01*
X2817926Y12887248D01*
X2830677Y12894259D01*
X2842463Y12902793D01*
X2853080Y12912750D01*
X2862376Y12923977D01*
X2870149Y12936270D01*
X2876346Y12949428D01*
X2880868Y12963296D01*
X2883560Y12977571D01*
X2884474Y12992100D01*
X2883560Y13006628D01*
X2880868Y13020903D01*
X2876346Y13034771D01*
X2870149Y13047929D01*
X2862376Y13060222D01*
X2853080Y13071449D01*
X2842463Y13081406D01*
X2830677Y13089940D01*
X2817926Y13096951D01*
X2804414Y13102336D01*
X2790291Y13105942D01*
X2775864Y13107771D01*
X2761335Y13107771D01*
X2746908Y13105942D01*
X2732786Y13102336D01*
X2719273Y13096951D01*
X2706522Y13089940D01*
X2694736Y13081406D01*
X2684119Y13071449D01*
X2674823Y13060222D01*
X2667050Y13047929D01*
X2660853Y13034771D01*
X2656332Y13020903D01*
X2653639Y13006628D01*
X2652725Y12992100D01*
X2653639Y12977571D01*
X2656332Y12963296D01*
X2660853Y12949428D01*
X2667050Y12936270D01*
X2674823Y12923977D01*
X2684119Y12912750D01*
X2694736Y12902793D01*
X2706522Y12894259D01*
X2719273Y12887248D01*
X2732786Y12881864D01*
X2746908Y12878257D01*
G37*
G36*
X3777335Y12876428D02*
G01*
X3791864Y12876428D01*
X3806291Y12878257D01*
X3820414Y12881864D01*
X3833926Y12887248D01*
X3846677Y12894259D01*
X3858463Y12902793D01*
X3869080Y12912750D01*
X3878376Y12923977D01*
X3886149Y12936270D01*
X3892346Y12949428D01*
X3896868Y12963296D01*
X3899560Y12977571D01*
X3900474Y12992100D01*
X3899560Y13006628D01*
X3896868Y13020903D01*
X3892346Y13034771D01*
X3886149Y13047929D01*
X3878376Y13060222D01*
X3869080Y13071449D01*
X3858463Y13081406D01*
X3846677Y13089940D01*
X3833926Y13096951D01*
X3820414Y13102336D01*
X3806291Y13105942D01*
X3791864Y13107771D01*
X3777335Y13107771D01*
X3762908Y13105942D01*
X3748786Y13102336D01*
X3735273Y13096951D01*
X3722522Y13089940D01*
X3710736Y13081406D01*
X3700119Y13071449D01*
X3690823Y13060222D01*
X3683050Y13047929D01*
X3676853Y13034771D01*
X3672332Y13020903D01*
X3669639Y13006628D01*
X3668725Y12992100D01*
X3669639Y12977571D01*
X3672332Y12963296D01*
X3676853Y12949428D01*
X3683050Y12936270D01*
X3690823Y12923977D01*
X3700119Y12912750D01*
X3710736Y12902793D01*
X3722522Y12894259D01*
X3735273Y12887248D01*
X3748786Y12881864D01*
X3762908Y12878257D01*
G37*
G36*
X3015335Y12876428D02*
G01*
X3029864Y12876428D01*
X3044291Y12878257D01*
X3058414Y12881864D01*
X3071926Y12887248D01*
X3084677Y12894259D01*
X3096463Y12902793D01*
X3107080Y12912750D01*
X3116376Y12923977D01*
X3124149Y12936270D01*
X3130346Y12949428D01*
X3134868Y12963296D01*
X3137560Y12977571D01*
X3138474Y12992100D01*
X3137560Y13006628D01*
X3134868Y13020903D01*
X3130346Y13034771D01*
X3124149Y13047929D01*
X3116376Y13060222D01*
X3107080Y13071449D01*
X3096463Y13081406D01*
X3084677Y13089940D01*
X3071926Y13096951D01*
X3058414Y13102336D01*
X3044291Y13105942D01*
X3029864Y13107771D01*
X3015335Y13107771D01*
X3000908Y13105942D01*
X2986786Y13102336D01*
X2973273Y13096951D01*
X2960522Y13089940D01*
X2948736Y13081406D01*
X2938119Y13071449D01*
X2928823Y13060222D01*
X2921050Y13047929D01*
X2914853Y13034771D01*
X2910332Y13020903D01*
X2907639Y13006628D01*
X2906725Y12992100D01*
X2907639Y12977571D01*
X2910332Y12963296D01*
X2914853Y12949428D01*
X2921050Y12936270D01*
X2928823Y12923977D01*
X2938119Y12912750D01*
X2948736Y12902793D01*
X2960522Y12894259D01*
X2973273Y12887248D01*
X2986786Y12881864D01*
X3000908Y12878257D01*
G37*
G36*
X2507335Y12876428D02*
G01*
X2521864Y12876428D01*
X2536291Y12878257D01*
X2550414Y12881864D01*
X2563926Y12887248D01*
X2576677Y12894259D01*
X2588463Y12902793D01*
X2599080Y12912750D01*
X2608376Y12923977D01*
X2616149Y12936270D01*
X2622346Y12949428D01*
X2626868Y12963296D01*
X2629560Y12977571D01*
X2630474Y12992100D01*
X2629560Y13006628D01*
X2626868Y13020903D01*
X2622346Y13034771D01*
X2616149Y13047929D01*
X2608376Y13060222D01*
X2599080Y13071449D01*
X2588463Y13081406D01*
X2576677Y13089940D01*
X2563926Y13096951D01*
X2550414Y13102336D01*
X2536291Y13105942D01*
X2521864Y13107771D01*
X2507335Y13107771D01*
X2492908Y13105942D01*
X2478786Y13102336D01*
X2465273Y13096951D01*
X2452522Y13089940D01*
X2440736Y13081406D01*
X2430119Y13071449D01*
X2420823Y13060222D01*
X2413050Y13047929D01*
X2406853Y13034771D01*
X2402332Y13020903D01*
X2399639Y13006628D01*
X2398725Y12992100D01*
X2399639Y12977571D01*
X2402332Y12963296D01*
X2406853Y12949428D01*
X2413050Y12936270D01*
X2420823Y12923977D01*
X2430119Y12912750D01*
X2440736Y12902793D01*
X2452522Y12894259D01*
X2465273Y12887248D01*
X2478786Y12881864D01*
X2492908Y12878257D01*
G37*
G36*
X3269335Y12876428D02*
G01*
X3283864Y12876428D01*
X3298291Y12878257D01*
X3312414Y12881864D01*
X3325926Y12887248D01*
X3338677Y12894259D01*
X3350463Y12902793D01*
X3361080Y12912750D01*
X3370376Y12923977D01*
X3378149Y12936270D01*
X3384346Y12949428D01*
X3388868Y12963296D01*
X3391560Y12977571D01*
X3392474Y12992100D01*
X3391560Y13006628D01*
X3388868Y13020903D01*
X3384346Y13034771D01*
X3378149Y13047929D01*
X3370376Y13060222D01*
X3361080Y13071449D01*
X3350463Y13081406D01*
X3338677Y13089940D01*
X3325926Y13096951D01*
X3312414Y13102336D01*
X3298291Y13105942D01*
X3283864Y13107771D01*
X3269335Y13107771D01*
X3254908Y13105942D01*
X3240786Y13102336D01*
X3227273Y13096951D01*
X3214522Y13089940D01*
X3202736Y13081406D01*
X3192119Y13071449D01*
X3182823Y13060222D01*
X3175050Y13047929D01*
X3168853Y13034771D01*
X3164332Y13020903D01*
X3161639Y13006628D01*
X3160725Y12992100D01*
X3161639Y12977571D01*
X3164332Y12963296D01*
X3168853Y12949428D01*
X3175050Y12936270D01*
X3182823Y12923977D01*
X3192119Y12912750D01*
X3202736Y12902793D01*
X3214522Y12894259D01*
X3227273Y12887248D01*
X3240786Y12881864D01*
X3254908Y12878257D01*
G37*
G36*
X957021Y13171881D02*
G01*
X975106Y13173252D01*
X992886Y13176504D01*
X1010310Y13181584D01*
X1027074Y13188391D01*
X1043025Y13196925D01*
X1058062Y13207034D01*
X1071981Y13218617D01*
X1084630Y13231571D01*
X1095857Y13245795D01*
X1105560Y13261086D01*
X1113688Y13277240D01*
X1120038Y13294207D01*
X1124661Y13311733D01*
X1127455Y13329615D01*
X1128369Y13347700D01*
X1127455Y13365784D01*
X1124661Y13383666D01*
X1120038Y13401192D01*
X1113688Y13418159D01*
X1105560Y13434313D01*
X1095857Y13449604D01*
X1084630Y13463828D01*
X1071981Y13476782D01*
X1058062Y13488365D01*
X1043025Y13498474D01*
X1027074Y13507008D01*
X1010310Y13513816D01*
X992886Y13518896D01*
X975106Y13522147D01*
X957021Y13523518D01*
X938936Y13523061D01*
X920953Y13520724D01*
X903325Y13516610D01*
X886256Y13510615D01*
X869848Y13502944D01*
X854303Y13493648D01*
X839825Y13482777D01*
X826516Y13470483D01*
X814578Y13456869D01*
X804062Y13442086D01*
X795172Y13426338D01*
X787908Y13409726D01*
X782421Y13392505D01*
X778713Y13374776D01*
X776833Y13356742D01*
X776833Y13338657D01*
X778713Y13320623D01*
X782421Y13302894D01*
X787908Y13285673D01*
X795172Y13269061D01*
X804062Y13253313D01*
X814578Y13238530D01*
X826516Y13224916D01*
X839825Y13212622D01*
X854303Y13201751D01*
X869848Y13192455D01*
X886256Y13184784D01*
X903325Y13178790D01*
X920953Y13174675D01*
X938936Y13172338D01*
G37*
G36*
X5440121Y13171881D02*
G01*
X5458206Y13173252D01*
X5475986Y13176504D01*
X5493410Y13181584D01*
X5510174Y13188391D01*
X5526125Y13196925D01*
X5541162Y13207034D01*
X5555081Y13218617D01*
X5567730Y13231571D01*
X5578957Y13245795D01*
X5588660Y13261086D01*
X5596788Y13277240D01*
X5603138Y13294207D01*
X5607761Y13311733D01*
X5610555Y13329615D01*
X5611469Y13347700D01*
X5610555Y13365784D01*
X5607761Y13383666D01*
X5603138Y13401192D01*
X5596788Y13418159D01*
X5588660Y13434313D01*
X5578957Y13449604D01*
X5567730Y13463828D01*
X5555081Y13476782D01*
X5541162Y13488365D01*
X5526125Y13498474D01*
X5510174Y13507008D01*
X5493410Y13513816D01*
X5475986Y13518896D01*
X5458206Y13522147D01*
X5440121Y13523518D01*
X5422036Y13523061D01*
X5404053Y13520724D01*
X5386425Y13516610D01*
X5369356Y13510615D01*
X5352948Y13502944D01*
X5337403Y13493648D01*
X5322925Y13482777D01*
X5309616Y13470483D01*
X5297678Y13456869D01*
X5287162Y13442086D01*
X5278272Y13426338D01*
X5271008Y13409726D01*
X5265521Y13392505D01*
X5261813Y13374776D01*
X5259933Y13356742D01*
X5259933Y13338657D01*
X5261813Y13320623D01*
X5265521Y13302894D01*
X5271008Y13285673D01*
X5278272Y13269061D01*
X5287162Y13253313D01*
X5297678Y13238530D01*
X5309616Y13224916D01*
X5322925Y13212622D01*
X5337403Y13201751D01*
X5352948Y13192455D01*
X5369356Y13184784D01*
X5386425Y13178790D01*
X5404053Y13174675D01*
X5422036Y13172338D01*
G37*

%LPD*%
D10*
X5283200Y11137900D02*
G01*
X5116829Y11137900D01*
X5238241Y12643358D02*
G01*
X5238241Y12477242D01*
X5321300Y12560300D02*
G01*
X5154929Y12560300D01*
X3465322Y11163302D02*
G01*
X3474211Y11158730D01*
X3483356Y11149586D01*
X3487927Y11140442D01*
X3492500Y11126980D01*
X3492500Y11104120D01*
X3487927Y11090404D01*
X3483356Y11081514D01*
X3474211Y11072370D01*
X3465322Y11067798D01*
X3447034Y11067798D01*
X3437890Y11072370D01*
X3428745Y11081514D01*
X3424427Y11090404D01*
X3419856Y11104120D01*
X3419856Y11126980D01*
X3424427Y11140442D01*
X3428745Y11149586D01*
X3437890Y11158730D01*
X3447034Y11163302D01*
X3465322Y11163302D01*
X3389884Y11163302D02*
G01*
X3389884Y11094976D01*
X3385311Y11081514D01*
X3376168Y11072370D01*
X3362452Y11067798D01*
X3353308Y11067798D01*
X3339845Y11072370D01*
X3330702Y11081514D01*
X3326129Y11094976D01*
X3326129Y11163302D01*
X3264408Y11163302D02*
G01*
X3264408Y11067798D01*
X3296158Y11163302D02*
G01*
X3232404Y11163302D01*
X3202431Y11108692D02*
G01*
X3120643Y11108692D01*
X3035300Y11658602D02*
G01*
X3035300Y11563098D01*
X3035300Y11658602D02*
G01*
X2994406Y11658602D01*
X2980690Y11654030D01*
X2976118Y11649458D01*
X2971545Y11640314D01*
X2971545Y11631170D01*
X2976118Y11622280D01*
X2980690Y11617708D01*
X2994406Y11613136D01*
X3035300Y11613136D02*
G01*
X2994406Y11613136D01*
X2980690Y11608564D01*
X2976118Y11603992D01*
X2971545Y11594848D01*
X2971545Y11581386D01*
X2976118Y11572242D01*
X2980690Y11567670D01*
X2994406Y11563098D01*
X3035300Y11563098D01*
X2941574Y11603992D02*
G01*
X2859786Y11603992D01*
X3048000Y12141200D02*
G01*
X3048000Y12045695D01*
X3048000Y12141200D02*
G01*
X3007106Y12141200D01*
X2993390Y12136628D01*
X2988818Y12132055D01*
X2984245Y12122912D01*
X2984245Y12113768D01*
X2988818Y12104878D01*
X2993390Y12100305D01*
X3007106Y12095734D01*
X3048000Y12095734D02*
G01*
X3007106Y12095734D01*
X2993390Y12091162D01*
X2988818Y12086589D01*
X2984245Y12077445D01*
X2984245Y12063984D01*
X2988818Y12054839D01*
X2993390Y12050268D01*
X3007106Y12045695D01*
X3048000Y12045695D01*
X2913379Y12127484D02*
G01*
X2913379Y12045695D01*
X2954274Y12086589D02*
G01*
X2872486Y12086589D01*
X3465322Y12585700D02*
G01*
X3474211Y12581128D01*
X3483356Y12571984D01*
X3487927Y12562839D01*
X3492500Y12549378D01*
X3492500Y12526518D01*
X3487927Y12512802D01*
X3483356Y12503912D01*
X3474211Y12494768D01*
X3465322Y12490195D01*
X3447034Y12490195D01*
X3437890Y12494768D01*
X3428745Y12503912D01*
X3424427Y12512802D01*
X3419856Y12526518D01*
X3419856Y12549378D01*
X3424427Y12562839D01*
X3428745Y12571984D01*
X3437890Y12581128D01*
X3447034Y12585700D01*
X3465322Y12585700D01*
X3389884Y12585700D02*
G01*
X3389884Y12517374D01*
X3385311Y12503912D01*
X3376168Y12494768D01*
X3362452Y12490195D01*
X3353308Y12490195D01*
X3339845Y12494768D01*
X3330702Y12503912D01*
X3326129Y12517374D01*
X3326129Y12585700D01*
X3264408Y12585700D02*
G01*
X3264408Y12490195D01*
X3296158Y12585700D02*
G01*
X3232404Y12585700D01*
X3161538Y12571984D02*
G01*
X3161538Y12490195D01*
X3202431Y12531089D02*
G01*
X3120643Y12531089D01*
X4672329Y12153897D02*
G01*
X4672329Y11960095D01*
X4737100Y12153897D02*
G01*
X4607813Y12153897D01*
X4546854Y12153897D02*
G01*
X4546854Y11960095D01*
X4546854Y12153897D02*
G01*
X4463795Y12153897D01*
X4436109Y12144753D01*
X4426711Y12135609D01*
X4417568Y12117067D01*
X4417568Y12089381D01*
X4426711Y12070839D01*
X4436109Y12061695D01*
X4463795Y12052297D01*
X4546854Y12052297D01*
X4264152Y12153897D02*
G01*
X4356608Y12024611D01*
X4217924Y12024611D01*
X4264152Y12153897D02*
G01*
X4264152Y11960095D01*
X4101591Y12153897D02*
G01*
X4129277Y12144753D01*
X4147820Y12117067D01*
X4156963Y12070839D01*
X4156963Y12043153D01*
X4147820Y11996925D01*
X4129277Y11969239D01*
X4101591Y11960095D01*
X4083050Y11960095D01*
X4055363Y11969239D01*
X4037075Y11996925D01*
X4027677Y12043153D01*
X4027677Y12070839D01*
X4037075Y12117067D01*
X4055363Y12144753D01*
X4083050Y12153897D01*
X4101591Y12153897D01*
X3855974Y12153897D02*
G01*
X3948429Y12153897D01*
X3957574Y12070839D01*
X3948429Y12079983D01*
X3920490Y12089381D01*
X3892804Y12089381D01*
X3865118Y12079983D01*
X3846829Y12061695D01*
X3837431Y12034009D01*
X3837431Y12015467D01*
X3846829Y11987781D01*
X3865118Y11969239D01*
X3892804Y11960095D01*
X3920490Y11960095D01*
X3948429Y11969239D01*
X3957574Y11978383D01*
X3966718Y11996925D01*
X3665727Y12126211D02*
G01*
X3674872Y12144753D01*
X3702558Y12153897D01*
X3721100Y12153897D01*
X3748786Y12144753D01*
X3767327Y12117067D01*
X3776472Y12070839D01*
X3776472Y12024611D01*
X3767327Y11987781D01*
X3748786Y11969239D01*
X3721100Y11960095D01*
X3711956Y11960095D01*
X3684270Y11969239D01*
X3665727Y11987781D01*
X3656329Y12015467D01*
X3656329Y12024611D01*
X3665727Y12052297D01*
X3684270Y12070839D01*
X3711956Y12079983D01*
X3721100Y12079983D01*
X3748786Y12070839D01*
X3767327Y12052297D01*
X3776472Y12024611D01*
X4737100Y11849097D02*
G01*
X4737100Y11655295D01*
X4737100Y11849097D02*
G01*
X4663186Y11655295D01*
X4589272Y11849097D02*
G01*
X4663186Y11655295D01*
X4589272Y11849097D02*
G01*
X4589272Y11655295D01*
X4472940Y11849097D02*
G01*
X4491481Y11839953D01*
X4509770Y11821411D01*
X4519168Y11803123D01*
X4528311Y11775183D01*
X4528311Y11729209D01*
X4519168Y11701523D01*
X4509770Y11682981D01*
X4491481Y11664439D01*
X4472940Y11655295D01*
X4436109Y11655295D01*
X4417568Y11664439D01*
X4399025Y11682981D01*
X4389881Y11701523D01*
X4380484Y11729209D01*
X4380484Y11775183D01*
X4389881Y11803123D01*
X4399025Y11821411D01*
X4417568Y11839953D01*
X4436109Y11849097D01*
X4472940Y11849097D01*
X4319524Y11849097D02*
G01*
X4319524Y11655295D01*
X4319524Y11849097D02*
G01*
X4255008Y11849097D01*
X4227322Y11839953D01*
X4208779Y11821411D01*
X4199636Y11803123D01*
X4190238Y11775183D01*
X4190238Y11729209D01*
X4199636Y11701523D01*
X4208779Y11682981D01*
X4227322Y11664439D01*
X4255008Y11655295D01*
X4319524Y11655295D01*
X4129277Y11849097D02*
G01*
X4129277Y11710667D01*
X4120134Y11682981D01*
X4101591Y11664439D01*
X4073906Y11655295D01*
X4055363Y11655295D01*
X4027677Y11664439D01*
X4009390Y11682981D01*
X3999991Y11710667D01*
X3999991Y11849097D01*
X3939031Y11849097D02*
G01*
X3939031Y11655295D01*
X3939031Y11655295D02*
G01*
X3828288Y11655295D01*
X3767327Y11849097D02*
G01*
X3767327Y11655295D01*
X3767327Y11849097D02*
G01*
X3647186Y11849097D01*
X3767327Y11756895D02*
G01*
X3693413Y11756895D01*
X3767327Y11655295D02*
G01*
X3647186Y11655295D01*
D11*
X4038600Y10706100D02*
G01*
X3296765Y11447927D01*
X3296765Y12222627D01*
X2971800Y12547600D01*
X2959100Y11125200D02*
G01*
X2286000Y11125200D01*
X914400Y12496800D01*
X1892300Y13233400D02*
G01*
X1892300Y13177669D01*
X2789077Y12280900D01*
X2984500Y12280900D01*
X1638300Y13233400D02*
G01*
X1638300Y12700000D01*
X2946400Y11391900D01*
D12*
G01*
X1892300Y13233400D03*
D13*
G01*
X1638300Y13233400D03*
D14*
G01*
X4038625Y12992074D03*
G01*
X4038625Y10706074D03*
G01*
X3784625Y12992074D03*
G01*
X3784625Y10706074D03*
G01*
X3530625Y12992074D03*
G01*
X3530625Y10706074D03*
G01*
X3276625Y12992074D03*
G01*
X3276625Y10706074D03*
G01*
X3022625Y12992074D03*
G01*
X3022625Y10706074D03*
G01*
X2768625Y12992074D03*
G01*
X2768625Y10706074D03*
G01*
X2514625Y12992074D03*
G01*
X2514625Y10706074D03*
G01*
X2260625Y12992074D03*
G01*
X2260625Y10706074D03*
D15*
G01*
X2971800Y12547600D03*
G01*
X2984500Y12280900D03*
G01*
X2946400Y11391900D03*
G01*
X2959100Y11125200D03*
G01*
X5511800Y12547600D03*
G01*
X5499100Y11150600D03*
D16*
G01*
X914400Y12750800D03*
D17*
G01*
X914400Y12496800D03*
G01*
X914400Y12242800D03*
G01*
X914400Y11988800D03*
G01*
X914400Y11734800D03*
G01*
X914400Y11480800D03*
G01*
X914400Y11226800D03*
G01*
X914400Y10972800D03*
M02*
