M48
METRIC,LZ,000.000
;FILE_FORMAT=3:3
;TYPE=PLATED
;Layer: PTH_Through
;EasyEDA v6.5.23, 2023-05-31 09:28:12
;09e610007bd44921b29e07513bdf5b12,4db1f7442a1f4f30bb2da465e00f2567,10
;Gerber Generator version 0.2
;Holesize 1 = 0.889 mm
T01C0.889
;Holesize 2 = 1.000 mm
T02C1.000
;Holesize 3 = 1.016 mm
T03C1.016
%
G05
G90
T01
X009144Y127508
X009144Y124968
X009144Y122428
X009144Y119888
X009144Y117348
X009144Y114808
X009144Y112268
X009144Y109728
T02
X029718Y125476
X029845Y122809
X029464Y113919
X029591Y111252
X055118Y125476
X054991Y111506
T03
X040389Y129921G85X040383Y129921
X040389Y107061G85X040383Y107061
X037849Y129921G85X037843Y129921
X037849Y107061G85X037843Y107061
X035309Y129921G85X035303Y129921
X035309Y107061G85X035303Y107061
X032769Y129921G85X032763Y129921
X032769Y107061G85X032763Y107061
X030229Y129921G85X030223Y129921
X030229Y107061G85X030223Y107061
X027689Y129921G85X027683Y129921
X027689Y107061G85X027683Y107061
X025149Y129921G85X025143Y129921
X025149Y107061G85X025143Y107061
X022609Y129921G85X022603Y129921
X022609Y107061G85X022603Y107061
M30
