G04 Layer: TopSilkscreenLayer*
G04 EasyEDA v6.5.23, 2023-05-31 09:28:12*
G04 09e610007bd44921b29e07513bdf5b12,4db1f7442a1f4f30bb2da465e00f2567,10*
G04 Gerber Generator version 0.2*
G04 Scale: 100 percent, Rotated: No, Reflected: No *
G04 Dimensions in millimeters *
G04 leading zeros omitted , absolute positions ,4 integer and 5 decimal *
%FSLAX45Y45*%
%MOMM*%

%ADD10C,0.2032*%
%ADD11C,0.2030*%

%LPD*%
G36*
X1109218Y12528296D02*
G01*
X1103884Y12527788D01*
X1099058Y12526264D01*
X1094790Y12523825D01*
X1091133Y12520472D01*
X1088136Y12516307D01*
X1085951Y12511379D01*
X1084529Y12505690D01*
X1084072Y12499340D01*
X1084529Y12492939D01*
X1085900Y12487198D01*
X1088085Y12482271D01*
X1090980Y12478105D01*
X1094638Y12474803D01*
X1098854Y12472365D01*
X1103680Y12470892D01*
X1108964Y12470384D01*
X1114247Y12470892D01*
X1118920Y12472212D01*
X1122883Y12474244D01*
X1125982Y12476734D01*
X1125982Y12499848D01*
X1107948Y12499848D01*
X1107948Y12494768D01*
X1120140Y12494768D01*
X1120140Y12479528D01*
X1118057Y12478004D01*
X1115466Y12476886D01*
X1112520Y12476226D01*
X1109472Y12475972D01*
X1101344Y12477648D01*
X1095400Y12482322D01*
X1091692Y12489688D01*
X1090422Y12499340D01*
X1091742Y12509093D01*
X1095552Y12516459D01*
X1101547Y12521082D01*
X1109472Y12522708D01*
X1113434Y12522250D01*
X1116736Y12521082D01*
X1119378Y12519406D01*
X1121664Y12517374D01*
X1125220Y12521438D01*
X1122426Y12523927D01*
X1118920Y12526111D01*
X1114552Y12527686D01*
G37*
G36*
X1139444Y12527280D02*
G01*
X1139444Y12471400D01*
X1145286Y12471400D01*
X1145184Y12506198D01*
X1144524Y12518898D01*
X1145032Y12518898D01*
X1151128Y12507468D01*
X1171956Y12471400D01*
X1178560Y12471400D01*
X1178560Y12527280D01*
X1172464Y12527280D01*
X1172565Y12492634D01*
X1173480Y12479528D01*
X1172972Y12479528D01*
X1166876Y12490958D01*
X1145794Y12527280D01*
G37*
G36*
X1194054Y12527280D02*
G01*
X1194054Y12521946D01*
X1207262Y12521946D01*
X1212037Y12521590D01*
X1216202Y12520472D01*
X1219657Y12518644D01*
X1222451Y12516104D01*
X1224584Y12512903D01*
X1226108Y12509093D01*
X1227023Y12504623D01*
X1227328Y12499594D01*
X1227023Y12494514D01*
X1226108Y12489992D01*
X1224584Y12486030D01*
X1222451Y12482728D01*
X1219657Y12480036D01*
X1216202Y12478105D01*
X1212037Y12476886D01*
X1207262Y12476480D01*
X1200404Y12476480D01*
X1200404Y12521946D01*
X1194054Y12521946D01*
X1194054Y12471400D01*
X1208024Y12471400D01*
X1214018Y12471908D01*
X1219250Y12473330D01*
X1223721Y12475718D01*
X1227378Y12478918D01*
X1230223Y12482982D01*
X1232255Y12487808D01*
X1233525Y12493345D01*
X1233932Y12499594D01*
X1233525Y12505791D01*
X1232255Y12511328D01*
X1230223Y12516053D01*
X1227328Y12520015D01*
X1223619Y12523165D01*
X1219149Y12525400D01*
X1213866Y12526822D01*
X1207770Y12527280D01*
G37*
G36*
X1150874Y12756896D02*
G01*
X1145743Y12756388D01*
X1141069Y12754864D01*
X1136904Y12752425D01*
X1133348Y12749072D01*
X1130452Y12744907D01*
X1128318Y12739979D01*
X1126947Y12734290D01*
X1126490Y12727940D01*
X1126947Y12721539D01*
X1128268Y12715798D01*
X1130452Y12710871D01*
X1133297Y12706705D01*
X1136802Y12703403D01*
X1140866Y12700965D01*
X1145387Y12699492D01*
X1150366Y12698984D01*
X1155547Y12699492D01*
X1160018Y12701066D01*
X1163929Y12703606D01*
X1167384Y12707112D01*
X1163828Y12710922D01*
X1161034Y12708229D01*
X1157986Y12706197D01*
X1154531Y12704978D01*
X1150620Y12704572D01*
X1143254Y12706248D01*
X1137615Y12710922D01*
X1134059Y12718288D01*
X1132840Y12727940D01*
X1134110Y12737693D01*
X1137767Y12745059D01*
X1143457Y12749682D01*
X1150874Y12751308D01*
X1154328Y12750901D01*
X1157376Y12749784D01*
X1160119Y12748107D01*
X1162558Y12745974D01*
X1166114Y12750038D01*
X1163320Y12752628D01*
X1159814Y12754813D01*
X1155700Y12756337D01*
G37*
G36*
X1196848Y12756896D02*
G01*
X1191768Y12756388D01*
X1187145Y12754864D01*
X1182979Y12752425D01*
X1179423Y12749072D01*
X1176477Y12744907D01*
X1174292Y12739979D01*
X1172921Y12734290D01*
X1172464Y12727940D01*
X1172921Y12721539D01*
X1174242Y12715798D01*
X1176426Y12710871D01*
X1179271Y12706705D01*
X1182776Y12703403D01*
X1186840Y12700965D01*
X1191361Y12699492D01*
X1196340Y12698984D01*
X1201521Y12699492D01*
X1205992Y12701066D01*
X1209903Y12703606D01*
X1213358Y12707112D01*
X1209802Y12710922D01*
X1207008Y12708229D01*
X1203960Y12706197D01*
X1200505Y12704978D01*
X1196594Y12704572D01*
X1189228Y12706248D01*
X1183589Y12710922D01*
X1180033Y12718288D01*
X1178814Y12727940D01*
X1180084Y12737693D01*
X1183741Y12745059D01*
X1189431Y12749682D01*
X1196848Y12751308D01*
X1200404Y12750901D01*
X1203553Y12749784D01*
X1206246Y12748107D01*
X1208532Y12745974D01*
X1212088Y12750038D01*
X1209294Y12752628D01*
X1205788Y12754813D01*
X1201674Y12756337D01*
G37*
G36*
X1079754Y12755880D02*
G01*
X1097534Y12700000D01*
X1104900Y12700000D01*
X1122680Y12755880D01*
X1116330Y12755880D01*
X1102918Y12711328D01*
X1101344Y12706604D01*
X1101090Y12706604D01*
X1095756Y12724892D01*
X1086358Y12755880D01*
G37*
G36*
X1087374Y12273280D02*
G01*
X1087374Y12267946D01*
X1100328Y12267946D01*
X1105154Y12267590D01*
X1109268Y12266472D01*
X1112774Y12264644D01*
X1115618Y12262104D01*
X1117854Y12258903D01*
X1119378Y12255093D01*
X1120343Y12250623D01*
X1120648Y12245594D01*
X1120343Y12240514D01*
X1119378Y12235992D01*
X1117854Y12232030D01*
X1115618Y12228728D01*
X1112774Y12226036D01*
X1109268Y12224105D01*
X1105154Y12222886D01*
X1100328Y12222480D01*
X1093470Y12222480D01*
X1093470Y12267946D01*
X1087374Y12267946D01*
X1087374Y12217400D01*
X1101344Y12217400D01*
X1107236Y12217908D01*
X1112418Y12219330D01*
X1116838Y12221718D01*
X1120444Y12224918D01*
X1123289Y12228982D01*
X1125321Y12233808D01*
X1126591Y12239345D01*
X1126998Y12245594D01*
X1126591Y12251791D01*
X1125321Y12257328D01*
X1123289Y12262053D01*
X1120444Y12266015D01*
X1116787Y12269165D01*
X1112316Y12271400D01*
X1107084Y12272822D01*
X1101090Y12273280D01*
G37*
G36*
X1139444Y12273280D02*
G01*
X1139444Y12217400D01*
X1145540Y12217400D01*
X1145540Y12273280D01*
G37*
G36*
X1161288Y12273280D02*
G01*
X1161288Y12217400D01*
X1167130Y12217400D01*
X1167028Y12252198D01*
X1166368Y12264898D01*
X1166622Y12264898D01*
X1172718Y12253468D01*
X1193800Y12217400D01*
X1200404Y12217400D01*
X1200404Y12273280D01*
X1194308Y12273280D01*
X1194409Y12238634D01*
X1195070Y12225528D01*
X1194816Y12225528D01*
X1188720Y12236958D01*
X1167638Y12273280D01*
G37*
G36*
X1108456Y12020296D02*
G01*
X1103376Y12019788D01*
X1098753Y12018264D01*
X1094587Y12015825D01*
X1091031Y12012472D01*
X1088085Y12008307D01*
X1085900Y12003379D01*
X1084529Y11997690D01*
X1084072Y11991340D01*
X1084529Y11984939D01*
X1085850Y11979198D01*
X1088034Y11974271D01*
X1090879Y11970105D01*
X1094384Y11966803D01*
X1098448Y11964365D01*
X1102969Y11962892D01*
X1107948Y11962384D01*
X1113129Y11962892D01*
X1117600Y11964466D01*
X1121511Y11967006D01*
X1124966Y11970512D01*
X1121410Y11974322D01*
X1118616Y11971629D01*
X1115568Y11969597D01*
X1112113Y11968378D01*
X1108202Y11967972D01*
X1100836Y11969648D01*
X1095197Y11974322D01*
X1091641Y11981688D01*
X1090422Y11991340D01*
X1091692Y12001093D01*
X1095349Y12008459D01*
X1101039Y12013082D01*
X1108456Y12014708D01*
X1112012Y12014301D01*
X1115161Y12013184D01*
X1117854Y12011507D01*
X1120140Y12009374D01*
X1123696Y12013438D01*
X1120902Y12016028D01*
X1117396Y12018213D01*
X1113282Y12019737D01*
G37*
G36*
X1135634Y12019280D02*
G01*
X1135634Y11963400D01*
X1166622Y11963400D01*
X1166622Y11968734D01*
X1141984Y11968734D01*
X1141984Y12019280D01*
G37*
G36*
X1176528Y12019280D02*
G01*
X1176528Y11963400D01*
X1182878Y11963400D01*
X1182878Y11981434D01*
X1192784Y11993118D01*
X1209802Y11963400D01*
X1216914Y11963400D01*
X1196848Y11997944D01*
X1214374Y12019280D01*
X1207008Y12019280D01*
X1182878Y11990578D01*
X1182878Y12019280D01*
G37*
G36*
X1121156Y11791696D02*
G01*
X1116076Y11791188D01*
X1111453Y11789664D01*
X1107287Y11787225D01*
X1103731Y11783872D01*
X1100785Y11779707D01*
X1098600Y11774779D01*
X1097229Y11769090D01*
X1096772Y11762740D01*
X1097229Y11756339D01*
X1098550Y11750598D01*
X1100734Y11745671D01*
X1103579Y11741505D01*
X1107084Y11738203D01*
X1111148Y11735765D01*
X1115669Y11734292D01*
X1120648Y11733784D01*
X1125829Y11734292D01*
X1130300Y11735866D01*
X1134211Y11738406D01*
X1137666Y11741912D01*
X1134110Y11745722D01*
X1131316Y11743029D01*
X1128268Y11740997D01*
X1124813Y11739778D01*
X1120902Y11739372D01*
X1113536Y11741048D01*
X1107897Y11745722D01*
X1104341Y11753088D01*
X1103122Y11762740D01*
X1104392Y11772493D01*
X1108049Y11779859D01*
X1113739Y11784482D01*
X1121156Y11786108D01*
X1124712Y11785701D01*
X1127861Y11784584D01*
X1130554Y11782907D01*
X1132840Y11780774D01*
X1136396Y11784838D01*
X1133602Y11787428D01*
X1130096Y11789613D01*
X1125982Y11791137D01*
G37*
G36*
X1162050Y11791696D02*
G01*
X1155192Y11790578D01*
X1149807Y11787479D01*
X1146302Y11782806D01*
X1145032Y11776964D01*
X1146048Y11771630D01*
X1148689Y11767667D01*
X1152296Y11764772D01*
X1156208Y11762740D01*
X1168095Y11757507D01*
X1171143Y11755526D01*
X1173226Y11752884D01*
X1173988Y11749024D01*
X1173124Y11745061D01*
X1170635Y11742013D01*
X1166723Y11740083D01*
X1161542Y11739372D01*
X1157224Y11739880D01*
X1153109Y11741302D01*
X1149350Y11743537D01*
X1146048Y11746484D01*
X1142238Y11742166D01*
X1146200Y11738711D01*
X1150721Y11736070D01*
X1155903Y11734393D01*
X1161542Y11733784D01*
X1169314Y11735003D01*
X1175207Y11738305D01*
X1179017Y11743334D01*
X1180338Y11749532D01*
X1179423Y11754866D01*
X1176883Y11758879D01*
X1173175Y11761927D01*
X1168654Y11764264D01*
X1157376Y11769242D01*
X1154430Y11771122D01*
X1152245Y11773763D01*
X1151382Y11777472D01*
X1152144Y11781078D01*
X1154328Y11783771D01*
X1157681Y11785498D01*
X1162050Y11786108D01*
X1165860Y11785701D01*
X1169263Y11784584D01*
X1172362Y11782907D01*
X1175004Y11780774D01*
X1178306Y11784838D01*
X1175105Y11787530D01*
X1171295Y11789714D01*
X1166926Y11791137D01*
G37*
G36*
X1173226Y11512296D02*
G01*
X1168095Y11511788D01*
X1163421Y11510264D01*
X1159256Y11507825D01*
X1155700Y11504472D01*
X1152804Y11500307D01*
X1150670Y11495379D01*
X1149299Y11489690D01*
X1148842Y11483340D01*
X1149299Y11476939D01*
X1150620Y11471198D01*
X1152804Y11466271D01*
X1155649Y11462105D01*
X1159154Y11458803D01*
X1163218Y11456365D01*
X1167739Y11454892D01*
X1172718Y11454384D01*
X1177899Y11454892D01*
X1182370Y11456466D01*
X1186281Y11459006D01*
X1189736Y11462512D01*
X1186180Y11466322D01*
X1183386Y11463629D01*
X1180338Y11461597D01*
X1176883Y11460378D01*
X1172972Y11459972D01*
X1165606Y11461648D01*
X1159967Y11466322D01*
X1156411Y11473688D01*
X1155192Y11483340D01*
X1156462Y11493093D01*
X1160119Y11500459D01*
X1165809Y11505082D01*
X1173226Y11506708D01*
X1176680Y11506301D01*
X1179728Y11505184D01*
X1182471Y11503507D01*
X1184910Y11501374D01*
X1188466Y11505438D01*
X1185672Y11508028D01*
X1182166Y11510213D01*
X1178052Y11511737D01*
G37*
G36*
X1100074Y11511280D02*
G01*
X1100074Y11505946D01*
X1113028Y11505946D01*
X1117854Y11505590D01*
X1121968Y11504472D01*
X1125474Y11502644D01*
X1128318Y11500104D01*
X1130554Y11496903D01*
X1132078Y11493093D01*
X1133043Y11488623D01*
X1133348Y11483594D01*
X1133043Y11478514D01*
X1132078Y11473992D01*
X1130554Y11470030D01*
X1128318Y11466728D01*
X1125474Y11464036D01*
X1121968Y11462105D01*
X1117854Y11460886D01*
X1113028Y11460480D01*
X1106170Y11460480D01*
X1106170Y11505946D01*
X1100074Y11505946D01*
X1100074Y11455400D01*
X1114044Y11455400D01*
X1119936Y11455908D01*
X1125118Y11457330D01*
X1129538Y11459718D01*
X1133144Y11462918D01*
X1135989Y11466982D01*
X1138021Y11471808D01*
X1139291Y11477345D01*
X1139698Y11483594D01*
X1139291Y11489791D01*
X1138021Y11495328D01*
X1135989Y11500053D01*
X1133144Y11504015D01*
X1129487Y11507165D01*
X1125016Y11509400D01*
X1119784Y11510822D01*
X1113790Y11511280D01*
G37*
G36*
X1162558Y11258296D02*
G01*
X1155700Y11257178D01*
X1150213Y11254079D01*
X1146606Y11249406D01*
X1145286Y11243564D01*
X1146302Y11238230D01*
X1148943Y11234267D01*
X1152550Y11231372D01*
X1156462Y11229340D01*
X1168349Y11224107D01*
X1171397Y11222126D01*
X1173480Y11219484D01*
X1174242Y11215624D01*
X1173378Y11211661D01*
X1170889Y11208613D01*
X1166977Y11206683D01*
X1161796Y11205972D01*
X1157478Y11206480D01*
X1153363Y11207902D01*
X1149604Y11210137D01*
X1146302Y11213084D01*
X1142492Y11208766D01*
X1146454Y11205311D01*
X1150975Y11202670D01*
X1156157Y11200993D01*
X1161796Y11200384D01*
X1169568Y11201603D01*
X1175461Y11204905D01*
X1179271Y11209934D01*
X1180592Y11216132D01*
X1179677Y11221466D01*
X1177239Y11225479D01*
X1173530Y11228527D01*
X1168908Y11230864D01*
X1157732Y11235842D01*
X1154734Y11237722D01*
X1152499Y11240363D01*
X1151636Y11244072D01*
X1152398Y11247678D01*
X1154633Y11250371D01*
X1158087Y11252098D01*
X1162558Y11252708D01*
X1166317Y11252301D01*
X1169670Y11251184D01*
X1172616Y11249507D01*
X1175258Y11247374D01*
X1178560Y11251438D01*
X1175359Y11254130D01*
X1171600Y11256314D01*
X1167333Y11257737D01*
G37*
G36*
X1100074Y11257280D02*
G01*
X1100074Y11251946D01*
X1116076Y11251946D01*
X1122019Y11251438D01*
X1126388Y11249710D01*
X1129131Y11246612D01*
X1130046Y11241786D01*
X1129131Y11236807D01*
X1126388Y11233353D01*
X1122019Y11231270D01*
X1116076Y11230610D01*
X1106170Y11230610D01*
X1106170Y11251946D01*
X1100074Y11251946D01*
X1100074Y11201400D01*
X1106170Y11201400D01*
X1106170Y11225530D01*
X1116838Y11225530D01*
X1130554Y11201400D01*
X1137666Y11201400D01*
X1123442Y11226038D01*
X1128776Y11228019D01*
X1132890Y11231219D01*
X1135481Y11235842D01*
X1136396Y11241786D01*
X1134973Y11249050D01*
X1131011Y11253825D01*
X1124915Y11256467D01*
X1117092Y11257280D01*
G37*
G36*
X1184656Y11257280D02*
G01*
X1184656Y11251946D01*
X1201674Y11251946D01*
X1201674Y11201400D01*
X1208024Y11201400D01*
X1208024Y11251946D01*
X1225042Y11251946D01*
X1225042Y11257280D01*
G37*
G36*
X1100074Y10977880D02*
G01*
X1100074Y10972800D01*
X1115314Y10972800D01*
X1121206Y10972292D01*
X1125524Y10970666D01*
X1128115Y10967770D01*
X1129030Y10963402D01*
X1128217Y10959439D01*
X1125728Y10956391D01*
X1121308Y10954461D01*
X1114806Y10953750D01*
X1106170Y10953750D01*
X1106170Y10972800D01*
X1100074Y10972800D01*
X1100074Y10948924D01*
X1116330Y10948924D01*
X1123137Y10948314D01*
X1128115Y10946384D01*
X1131265Y10943132D01*
X1132332Y10938510D01*
X1131214Y10933379D01*
X1128064Y10929823D01*
X1122984Y10927740D01*
X1116330Y10927080D01*
X1106170Y10927080D01*
X1106170Y10948924D01*
X1100074Y10948924D01*
X1100074Y10922000D01*
X1117346Y10922000D01*
X1125880Y10923016D01*
X1132535Y10926013D01*
X1136904Y10931093D01*
X1138428Y10938256D01*
X1137615Y10943386D01*
X1135278Y10947349D01*
X1131570Y10950143D01*
X1126744Y10951718D01*
X1126744Y10951972D01*
X1130300Y10953851D01*
X1132941Y10956645D01*
X1134567Y10960150D01*
X1135126Y10964164D01*
X1133754Y10970361D01*
X1129893Y10974628D01*
X1123899Y10977118D01*
X1116076Y10977880D01*
G37*
G36*
X1149604Y10977880D02*
G01*
X1149604Y10922000D01*
X1180592Y10922000D01*
X1180592Y10927334D01*
X1155954Y10927334D01*
X1155954Y10977880D01*
G37*
D10*
X1041400Y10845800D02*
G01*
X787400Y10845800D01*
X787400Y12877800D01*
X1041400Y12877800D01*
X1041400Y12687300D01*
D11*
X1041400Y10845800D02*
G01*
X1041400Y12687300D01*
M02*
